<svg xmlns="http://www.w3.org/2000/svg" xmlns:xlink="http://www.w3.org/1999/xlink" width="500" zoomAndPan="magnify" viewBox="0 0 375 374.999991" height="500" preserveAspectRatio="xMidYMid meet" version="1.0"><defs><g><g id="id1"/></g><clipPath id="id2"><path d="M 94.609375 157.589844 L 280.609375 157.589844 L 280.609375 288.089844 L 94.609375 288.089844 Z M 94.609375 157.589844 " clip-rule="nonzero"/></clipPath></defs><path fill="rgb(0%, 0%, 0%)" d="M 0.015625 13.597656 L 374.984375 13.597656 L 374.984375 117.847656 L 0.015625 117.847656 L 0.015625 13.597656 " fill-opacity="1" fill-rule="nonzero"/><path fill="rgb(0%, 0%, 0%)" d="M 39.5 327.773438 L 335.699219 327.773438 L 335.699219 361.523438 L 39.5 361.523438 L 39.5 327.773438 " fill-opacity="1" fill-rule="nonzero"/><g clip-path="url(#id2)"><path fill="rgb(0%, 0%, 0%)" d="M 280.609375 222.839844 C 280.609375 223.90625 280.574219 224.972656 280.5 226.039062 C 280.425781 227.105469 280.3125 228.167969 280.164062 229.230469 C 280.015625 230.292969 279.828125 231.351562 279.605469 232.40625 C 279.382812 233.464844 279.121094 234.515625 278.824219 235.5625 C 278.527344 236.605469 278.195312 237.648438 277.824219 238.683594 C 277.453125 239.71875 277.046875 240.746094 276.605469 241.769531 C 276.164062 242.789062 275.6875 243.800781 275.175781 244.808594 C 274.660156 245.8125 274.113281 246.808594 273.53125 247.792969 C 272.949219 248.777344 272.332031 249.753906 271.683594 250.71875 C 271.03125 251.683594 270.347656 252.636719 269.628906 253.578125 C 268.910156 254.519531 268.160156 255.449219 267.378906 256.363281 C 266.597656 257.277344 265.78125 258.179688 264.9375 259.066406 C 264.09375 259.953125 263.214844 260.828125 262.308594 261.683594 C 261.402344 262.539062 260.464844 263.382812 259.5 264.207031 C 258.535156 265.03125 257.542969 265.839844 256.519531 266.628906 C 255.496094 267.421875 254.449219 268.195312 253.371094 268.949219 C 252.296875 269.703125 251.195312 270.4375 250.066406 271.15625 C 248.9375 271.871094 247.785156 272.570312 246.609375 273.246094 C 245.433594 273.921875 244.234375 274.578125 243.011719 275.214844 C 241.789062 275.851562 240.542969 276.464844 239.277344 277.058594 C 238.011719 277.652344 236.726562 278.222656 235.421875 278.769531 C 234.117188 279.320312 232.792969 279.84375 231.449219 280.347656 C 230.109375 280.851562 228.75 281.332031 227.375 281.785156 C 225.996094 282.242188 224.605469 282.675781 223.199219 283.082031 C 221.792969 283.492188 220.375 283.875 218.941406 284.234375 C 217.507812 284.59375 216.0625 284.929688 214.605469 285.238281 C 213.152344 285.550781 211.683594 285.832031 210.207031 286.09375 C 208.730469 286.351562 207.246094 286.585938 205.753906 286.792969 C 204.261719 287.003906 202.761719 287.183594 201.257812 287.339844 C 199.75 287.496094 198.242188 287.628906 196.726562 287.734375 C 195.210938 287.835938 193.695312 287.917969 192.175781 287.96875 C 190.652344 288.019531 189.132812 288.046875 187.609375 288.046875 C 186.089844 288.046875 184.566406 288.019531 183.046875 287.96875 C 181.527344 287.917969 180.011719 287.835938 178.496094 287.734375 C 176.980469 287.628906 175.46875 287.496094 173.964844 287.339844 C 172.460938 287.183594 170.960938 287.003906 169.46875 286.792969 C 167.976562 286.585938 166.488281 286.351562 165.015625 286.09375 C 163.539062 285.832031 162.070312 285.550781 160.613281 285.238281 C 159.15625 284.929688 157.714844 284.59375 156.28125 284.234375 C 154.847656 283.875 153.425781 283.492188 152.019531 283.082031 C 150.613281 282.675781 149.222656 282.242188 147.847656 281.785156 C 146.472656 281.332031 145.113281 280.851562 143.769531 280.347656 C 142.429688 279.84375 141.105469 279.320312 139.800781 278.769531 C 138.492188 278.222656 137.207031 277.652344 135.941406 277.058594 C 134.675781 276.464844 133.433594 275.851562 132.210938 275.214844 C 130.988281 274.578125 129.789062 273.921875 128.613281 273.246094 C 127.4375 272.570312 126.285156 271.871094 125.15625 271.15625 C 124.027344 270.4375 122.925781 269.703125 121.851562 268.949219 C 120.773438 268.195312 119.722656 267.421875 118.703125 266.628906 C 117.679688 265.839844 116.6875 265.03125 115.722656 264.207031 C 114.753906 263.382812 113.820312 262.539062 112.914062 261.683594 C 112.007812 260.828125 111.128906 259.953125 110.285156 259.066406 C 109.4375 258.179688 108.625 257.277344 107.84375 256.363281 C 107.058594 255.449219 106.308594 254.519531 105.59375 253.578125 C 104.875 252.636719 104.191406 251.683594 103.539062 250.71875 C 102.890625 249.753906 102.273438 248.777344 101.691406 247.792969 C 101.109375 246.808594 100.558594 245.8125 100.046875 244.808594 C 99.535156 243.800781 99.058594 242.789062 98.617188 241.769531 C 98.171875 240.746094 97.769531 239.71875 97.398438 238.683594 C 97.027344 237.648438 96.695312 236.605469 96.398438 235.5625 C 96.101562 234.515625 95.839844 233.464844 95.617188 232.40625 C 95.394531 231.351562 95.207031 230.292969 95.058594 229.230469 C 94.910156 228.167969 94.796875 227.105469 94.722656 226.039062 C 94.648438 224.972656 94.609375 223.90625 94.609375 222.839844 C 94.609375 221.773438 94.648438 220.707031 94.722656 219.640625 C 94.796875 218.574219 94.910156 217.511719 95.058594 216.449219 C 95.207031 215.386719 95.394531 214.328125 95.617188 213.269531 C 95.839844 212.214844 96.101562 211.164062 96.398438 210.117188 C 96.695312 209.070312 97.027344 208.03125 97.398438 206.996094 C 97.769531 205.960938 98.171875 204.933594 98.617188 203.910156 C 99.058594 202.890625 99.535156 201.875 100.046875 200.871094 C 100.558594 199.867188 101.109375 198.871094 101.691406 197.886719 C 102.273438 196.898438 102.890625 195.925781 103.539062 194.960938 C 104.191406 193.996094 104.875 193.042969 105.59375 192.101562 C 106.308594 191.160156 107.058594 190.230469 107.84375 189.316406 C 108.625 188.402344 109.4375 187.5 110.285156 186.613281 C 111.128906 185.722656 112.007812 184.851562 112.914062 183.996094 C 113.820312 183.136719 114.753906 182.296875 115.722656 181.472656 C 116.6875 180.648438 117.679688 179.839844 118.703125 179.046875 C 119.722656 178.257812 120.773438 177.484375 121.851562 176.730469 C 122.925781 175.976562 124.027344 175.238281 125.15625 174.523438 C 126.285156 173.808594 127.4375 173.109375 128.613281 172.433594 C 129.789062 171.757812 130.988281 171.101562 132.210938 170.464844 C 133.433594 169.828125 134.675781 169.214844 135.941406 168.621094 C 137.207031 168.027344 138.492188 167.457031 139.800781 166.910156 C 141.105469 166.359375 142.429688 165.835938 143.769531 165.332031 C 145.113281 164.828125 146.472656 164.347656 147.847656 163.890625 C 149.222656 163.4375 150.613281 163.003906 152.019531 162.59375 C 153.425781 162.1875 154.847656 161.804688 156.28125 161.441406 C 157.714844 161.082031 159.15625 160.75 160.613281 160.4375 C 162.070312 160.128906 163.539062 159.84375 165.015625 159.585938 C 166.488281 159.328125 167.976562 159.09375 169.46875 158.882812 C 170.960938 158.675781 172.460938 158.492188 173.964844 158.335938 C 175.46875 158.179688 176.980469 158.050781 178.496094 157.945312 C 180.011719 157.839844 181.527344 157.761719 183.046875 157.710938 C 184.566406 157.65625 186.089844 157.632812 187.609375 157.632812 C 189.132812 157.632812 190.652344 157.65625 192.175781 157.710938 C 193.695312 157.761719 195.210938 157.839844 196.726562 157.945312 C 198.242188 158.050781 199.75 158.179688 201.257812 158.335938 C 202.761719 158.492188 204.261719 158.675781 205.753906 158.882812 C 207.246094 159.09375 208.730469 159.328125 210.207031 159.585938 C 211.683594 159.84375 213.152344 160.128906 214.605469 160.4375 C 216.0625 160.75 217.507812 161.082031 218.941406 161.441406 C 220.375 161.804688 221.792969 162.1875 223.199219 162.59375 C 224.605469 163.003906 225.996094 163.4375 227.375 163.890625 C 228.75 164.347656 230.109375 164.828125 231.449219 165.332031 C 232.792969 165.835938 234.117188 166.359375 235.421875 166.910156 C 236.726562 167.457031 238.011719 168.027344 239.277344 168.621094 C 240.542969 169.214844 241.789062 169.828125 243.011719 170.464844 C 244.234375 171.101562 245.433594 171.757812 246.609375 172.433594 C 247.785156 173.109375 248.9375 173.808594 250.066406 174.523438 C 251.195312 175.238281 252.296875 175.976562 253.371094 176.730469 C 254.449219 177.484375 255.496094 178.257812 256.519531 179.046875 C 257.542969 179.839844 258.535156 180.648438 259.5 181.472656 C 260.464844 182.296875 261.402344 183.136719 262.308594 183.996094 C 263.214844 184.851562 264.09375 185.722656 264.9375 186.613281 C 265.78125 187.5 266.597656 188.402344 267.378906 189.316406 C 268.160156 190.230469 268.910156 191.160156 269.628906 192.101562 C 270.347656 193.042969 271.03125 193.996094 271.683594 194.960938 C 272.332031 195.925781 272.949219 196.898438 273.53125 197.886719 C 274.113281 198.871094 274.660156 199.867188 275.175781 200.871094 C 275.6875 201.875 276.164062 202.890625 276.605469 203.910156 C 277.046875 204.933594 277.453125 205.960938 277.824219 206.996094 C 278.195312 208.03125 278.527344 209.070312 278.824219 210.117188 C 279.121094 211.164062 279.382812 212.214844 279.605469 213.269531 C 279.828125 214.328125 280.015625 215.386719 280.164062 216.449219 C 280.3125 217.511719 280.425781 218.574219 280.5 219.640625 C 280.574219 220.707031 280.609375 221.773438 280.609375 222.839844 Z M 280.609375 222.839844 " fill-opacity="1" fill-rule="nonzero"/></g><g fill="rgb(100%, 100%, 100%)" fill-opacity="1"><g transform="translate(106.457482, 85.658355)"><g><path d="M 16.859375 0.515625 C 12.054688 0.515625 8.414062 -0.773438 5.9375 -3.359375 C 3.46875 -5.953125 2.234375 -9.675781 2.234375 -14.53125 C 2.234375 -19.394531 3.566406 -23.164062 6.234375 -25.84375 C 8.910156 -28.519531 12.722656 -29.859375 17.671875 -29.859375 C 21.066406 -29.859375 24.269531 -29.117188 27.28125 -27.640625 L 24.296875 -20.15625 C 23.066406 -20.6875 21.929688 -21.109375 20.890625 -21.421875 C 19.859375 -21.742188 18.785156 -21.90625 17.671875 -21.90625 C 16.023438 -21.90625 14.753906 -21.265625 13.859375 -19.984375 C 12.960938 -18.710938 12.515625 -16.910156 12.515625 -14.578125 C 12.515625 -9.878906 14.25 -7.53125 17.71875 -7.53125 C 20.6875 -7.53125 23.535156 -8.394531 26.265625 -10.125 L 26.265625 -2.078125 C 23.660156 -0.347656 20.523438 0.515625 16.859375 0.515625 Z M 16.859375 0.515625 "/></g></g></g><g fill="rgb(100%, 100%, 100%)" fill-opacity="1"><g transform="translate(135.054621, 85.658355)"><g><path d="M 31.515625 -14.734375 C 31.515625 -9.929688 30.222656 -6.1875 27.640625 -3.5 C 25.066406 -0.820312 21.457031 0.515625 16.8125 0.515625 C 12.351562 0.515625 8.804688 -0.851562 6.171875 -3.59375 C 3.546875 -6.34375 2.234375 -10.054688 2.234375 -14.734375 C 2.234375 -19.515625 3.519531 -23.226562 6.09375 -25.875 C 8.675781 -28.53125 12.300781 -29.859375 16.96875 -29.859375 C 19.851562 -29.859375 22.398438 -29.242188 24.609375 -28.015625 C 26.816406 -26.796875 28.519531 -25.039062 29.71875 -22.75 C 30.914062 -20.46875 31.515625 -17.796875 31.515625 -14.734375 Z M 12.515625 -14.734375 C 12.515625 -12.210938 12.847656 -10.289062 13.515625 -8.96875 C 14.191406 -7.65625 15.320312 -7 16.90625 -7 C 18.476562 -7 19.585938 -7.65625 20.234375 -8.96875 C 20.890625 -10.289062 21.21875 -12.210938 21.21875 -14.734375 C 21.21875 -17.242188 20.890625 -19.132812 20.234375 -20.40625 C 19.578125 -21.6875 18.453125 -22.328125 16.859375 -22.328125 C 15.304688 -22.328125 14.191406 -21.691406 13.515625 -20.421875 C 12.847656 -19.148438 12.515625 -17.253906 12.515625 -14.734375 Z M 12.515625 -14.734375 "/></g></g></g><g fill="rgb(100%, 100%, 100%)" fill-opacity="1"><g transform="translate(168.858305, 85.658355)"><g><path d="M 24.40625 0 L 23.125 -3.65625 L 22.53125 -3.65625 C 21.6875 -2.300781 20.507812 -1.265625 19 -0.546875 C 17.488281 0.160156 15.710938 0.515625 13.671875 0.515625 C 10.441406 0.515625 7.925781 -0.421875 6.125 -2.296875 C 4.332031 -4.171875 3.4375 -6.816406 3.4375 -10.234375 L 3.4375 -29.34375 L 13.578125 -29.34375 L 13.578125 -13.3125 C 13.578125 -11.394531 13.847656 -9.941406 14.390625 -8.953125 C 14.929688 -7.972656 15.820312 -7.484375 17.0625 -7.484375 C 18.8125 -7.484375 20.054688 -8.171875 20.796875 -9.546875 C 21.535156 -10.921875 21.90625 -13.238281 21.90625 -16.5 L 21.90625 -29.34375 L 32.046875 -29.34375 L 32.046875 0 Z M 24.40625 0 "/></g></g></g><g fill="rgb(100%, 100%, 100%)" fill-opacity="1"><g transform="translate(204.397504, 85.658355)"><g><path d="M 16.859375 0.515625 C 12.054688 0.515625 8.414062 -0.773438 5.9375 -3.359375 C 3.46875 -5.953125 2.234375 -9.675781 2.234375 -14.53125 C 2.234375 -19.394531 3.566406 -23.164062 6.234375 -25.84375 C 8.910156 -28.519531 12.722656 -29.859375 17.671875 -29.859375 C 21.066406 -29.859375 24.269531 -29.117188 27.28125 -27.640625 L 24.296875 -20.15625 C 23.066406 -20.6875 21.929688 -21.109375 20.890625 -21.421875 C 19.859375 -21.742188 18.785156 -21.90625 17.671875 -21.90625 C 16.023438 -21.90625 14.753906 -21.265625 13.859375 -19.984375 C 12.960938 -18.710938 12.515625 -16.910156 12.515625 -14.578125 C 12.515625 -9.878906 14.25 -7.53125 17.71875 -7.53125 C 20.6875 -7.53125 23.535156 -8.394531 26.265625 -10.125 L 26.265625 -2.078125 C 23.660156 -0.347656 20.523438 0.515625 16.859375 0.515625 Z M 16.859375 0.515625 "/></g></g></g><g fill="rgb(100%, 100%, 100%)" fill-opacity="1"><g transform="translate(232.994643, 85.658355)"><g><path d="M 21.96875 0 L 21.96875 -16 C 21.96875 -19.9375 20.800781 -21.90625 18.46875 -21.90625 C 16.8125 -21.90625 15.585938 -21.210938 14.796875 -19.828125 C 14.015625 -18.441406 13.625 -16.132812 13.625 -12.90625 L 13.625 0 L 3.5 0 L 3.5 -40.296875 L 13.625 -40.296875 L 13.625 -34.578125 C 13.625 -31.984375 13.484375 -29.03125 13.203125 -25.71875 L 13.671875 -25.71875 C 14.640625 -27.238281 15.785156 -28.304688 17.109375 -28.921875 C 18.441406 -29.546875 19.988281 -29.859375 21.75 -29.859375 C 25.03125 -29.859375 27.582031 -28.910156 29.40625 -27.015625 C 31.226562 -25.128906 32.140625 -22.488281 32.140625 -19.09375 L 32.140625 0 Z M 21.96875 0 "/></g></g></g></svg>