<svg xmlns="http://www.w3.org/2000/svg" xmlns:xlink="http://www.w3.org/1999/xlink" width="50" zoomAndPan="magnify" viewBox="0 0 375 374.999991" height="50" preserveAspectRatio="xMidYMid meet" version="1.0"><path fill="rgb(0%, 0%, 0%)" d="M 336.460938 374.996094 L 121.210938 374.996094 C 107.78125 374.996094 96.835938 364.046875 96.835938 350.609375 L 96.835938 24.390625 C 96.835938 10.953125 107.78125 0.00390625 121.210938 0.00390625 L 336.460938 0.00390625 C 349.894531 0.00390625 360.835938 10.953125 360.835938 24.390625 L 360.835938 350.609375 C 360.835938 364.046875 349.894531 374.996094 336.460938 374.996094 " fill-opacity="1" fill-rule="nonzero"/><path fill="rgb(0%, 0%, 0%)" d="M 163.269531 289.539062 L 34.691406 207.90625 C 23.367188 200.714844 20 185.625 27.195312 174.292969 L 95.148438 67.261719 C 102.34375 55.929688 117.433594 52.554688 128.757812 59.746094 L 257.335938 141.378906 C 268.664062 148.570312 272.027344 163.660156 264.832031 174.996094 L 196.882812 282.023438 C 189.6875 293.355469 174.597656 296.730469 163.269531 289.539062 " fill-opacity="1" fill-rule="nonzero"/></svg>