<svg xmlns="http://www.w3.org/2000/svg" xmlns:xlink="http://www.w3.org/1999/xlink" width="50" zoomAndPan="magnify" viewBox="0 0 375 374.999991" height="50" preserveAspectRatio="xMidYMid meet" version="1.0"><path fill="rgb(0%, 25%, 53%)" d="M 254 374.996094 L 38.75 374.996094 C 25.320312 374.996094 14.375 364.046875 14.375 350.609375 L 14.375 24.390625 C 14.375 10.953125 25.320312 0.00390625 38.75 0.00390625 L 254 0.00390625 C 267.429688 0.00390625 278.375 10.953125 278.375 24.390625 L 278.375 350.609375 C 278.375 364.046875 267.429688 374.996094 254 374.996094 " fill-opacity="1" fill-rule="nonzero"/><path fill="rgb(0%, 25%, 53%)" d="M 245.726562 316.042969 L 117.144531 234.410156 C 105.820312 227.21875 102.457031 212.128906 109.648438 200.796875 L 177.601562 93.765625 C 184.796875 82.433594 199.886719 79.058594 211.210938 86.25 L 339.792969 167.882812 C 351.117188 175.074219 354.480469 190.164062 347.289062 201.5 L 279.335938 308.527344 C 272.140625 319.859375 257.050781 323.234375 245.726562 316.042969 " fill-opacity="1" fill-rule="nonzero"/></svg>